<mxfile host="app.diagrams.net" modified="2024-06-12T07:49:38.280Z" agent="Mozilla/5.0 (Windows NT 10.0; Win64; x64) AppleWebKit/537.36 (KHTML, like Gecko) Chrome/125.0.0.0 Safari/537.36 Edg/125.0.0.0" etag="iBxkz_xGNUYCPSDHHwUl" version="24.5.3" type="github">
  <diagram name="第 1 页" id="91wEzUKEambz2Gt2H2N4">
    <mxGraphModel dx="1455" dy="1074" grid="1" gridSize="10" guides="1" tooltips="1" connect="1" arrows="1" fold="1" page="1" pageScale="1" pageWidth="827" pageHeight="1169" math="0" shadow="0">
      <root>
        <mxCell id="0" />
        <mxCell id="1" parent="0" />
        <mxCell id="tBVclExGyR20wmYQ7qHH-13" style="edgeStyle=orthogonalEdgeStyle;rounded=0;orthogonalLoop=1;jettySize=auto;html=1;entryX=0;entryY=0.5;entryDx=0;entryDy=0;" edge="1" parent="1" source="tBVclExGyR20wmYQ7qHH-1" target="tBVclExGyR20wmYQ7qHH-2">
          <mxGeometry relative="1" as="geometry" />
        </mxCell>
        <mxCell id="tBVclExGyR20wmYQ7qHH-14" style="edgeStyle=orthogonalEdgeStyle;rounded=0;orthogonalLoop=1;jettySize=auto;html=1;entryX=0;entryY=0.5;entryDx=0;entryDy=0;" edge="1" parent="1" source="tBVclExGyR20wmYQ7qHH-1" target="tBVclExGyR20wmYQ7qHH-8">
          <mxGeometry relative="1" as="geometry" />
        </mxCell>
        <mxCell id="tBVclExGyR20wmYQ7qHH-15" style="edgeStyle=orthogonalEdgeStyle;rounded=0;orthogonalLoop=1;jettySize=auto;html=1;entryX=0;entryY=0.5;entryDx=0;entryDy=0;" edge="1" parent="1" source="tBVclExGyR20wmYQ7qHH-1" target="tBVclExGyR20wmYQ7qHH-6">
          <mxGeometry relative="1" as="geometry" />
        </mxCell>
        <mxCell id="tBVclExGyR20wmYQ7qHH-16" style="edgeStyle=orthogonalEdgeStyle;rounded=0;orthogonalLoop=1;jettySize=auto;html=1;entryX=0;entryY=0.5;entryDx=0;entryDy=0;" edge="1" parent="1" source="tBVclExGyR20wmYQ7qHH-1" target="tBVclExGyR20wmYQ7qHH-3">
          <mxGeometry relative="1" as="geometry" />
        </mxCell>
        <mxCell id="tBVclExGyR20wmYQ7qHH-1" value="训练计算框架" style="rounded=0;whiteSpace=wrap;html=1;" vertex="1" parent="1">
          <mxGeometry x="130" y="260" width="120" height="60" as="geometry" />
        </mxCell>
        <mxCell id="tBVclExGyR20wmYQ7qHH-2" value="Pytorch" style="rounded=0;whiteSpace=wrap;html=1;" vertex="1" parent="1">
          <mxGeometry x="300" y="220" width="120" height="60" as="geometry" />
        </mxCell>
        <mxCell id="tBVclExGyR20wmYQ7qHH-3" value="Caffe" style="rounded=0;whiteSpace=wrap;html=1;" vertex="1" parent="1">
          <mxGeometry x="300" y="450" width="120" height="60" as="geometry" />
        </mxCell>
        <mxCell id="tBVclExGyR20wmYQ7qHH-6" value="Keras" style="rounded=0;whiteSpace=wrap;html=1;" vertex="1" parent="1">
          <mxGeometry x="300" y="340" width="120" height="60" as="geometry" />
        </mxCell>
        <mxCell id="tBVclExGyR20wmYQ7qHH-8" value="Tensorflow" style="rounded=0;whiteSpace=wrap;html=1;" vertex="1" parent="1">
          <mxGeometry x="300" y="110" width="120" height="60" as="geometry" />
        </mxCell>
      </root>
    </mxGraphModel>
  </diagram>
</mxfile>
